<?xml version="1.0" encoding="utf-8"?>
<!-- Generator: Adobe Illustrator 24.1.3, SVG Export Plug-In . SVG Version: 6.00 Build 0)  -->
<svg version="1.1" id="Layer_1" xmlns="http://www.w3.org/2000/svg" xmlns:xlink="http://www.w3.org/1999/xlink" x="0px" y="0px"
	 viewBox="0 0 163 163" style="enable-background:new 0 0 163 163;" xml:space="preserve">
<style type="text/css">
	.st0{fill:#7F669D;}
</style>
<g id="SVGRepo_iconCarrier">
	<path class="st0" d="M0,132.5V30.6c-0.1-8.1,3.1-16,9-21.6c5.7-5.9,13.5-9.1,21.6-9h101.9c8.1-0.1,15.9,3.2,21.5,9
		c5.9,5.7,9.1,13.5,9,21.7v101.9c0.1,8.1-3.1,15.9-9,21.5c-5.7,5.8-13.4,9-21.5,9H30.6c-8.1,0.1-16-3.1-21.6-9
		C3.2,148.4-0.1,140.6,0,132.5z M20.4,132.5c-0.1,2.7,1,5.3,2.9,7.2c1.9,2,4.6,3,7.3,2.9h101.9c2.7,0,5.3-1,7.2-2.9
		c2-1.8,3.1-4.5,2.9-7.2V30.6c0.1-2.7-1-5.3-2.9-7.2c-1.9-1.9-4.5-3-7.2-3.1H30.6c-2.8,0-5.4,1.1-7.3,3.1c-2,1.8-3,4.5-2.9,7.2
		L20.4,132.5z"/>
</g>
</svg>
