<?xml version="1.0" encoding="utf-8"?>
<!-- Generator: Adobe Illustrator 24.1.3, SVG Export Plug-In . SVG Version: 6.00 Build 0)  -->
<svg version="1.1" id="Layer_1" xmlns="http://www.w3.org/2000/svg" xmlns:xlink="http://www.w3.org/1999/xlink" x="0px" y="0px"
	 viewBox="0 0 163 163" style="enable-background:new 0 0 163 163;" xml:space="preserve">
<style type="text/css">
	.st0{fill:#F2D388;}
	.st1{fill:#7F669D;}
</style>
<rect x="16.8" y="19.4" class="st0" width="129.4" height="124.3"/>
<g id="SVGRepo_iconCarrier">
	<path class="st1" d="M0,132.5V30.6c-0.1-8.1,3.1-16,9-21.6c5.7-5.9,13.5-9.1,21.6-9h101.9c8.1-0.1,15.9,3.2,21.5,9
		c5.9,5.7,9.1,13.5,9,21.7v101.9c0.1,8.1-3.1,15.9-9,21.5c-5.7,5.8-13.4,9-21.5,9H30.6c-8.1,0.1-16-3.1-21.6-9
		C3.2,148.4-0.1,140.6,0,132.5z M20.4,132.5c-0.1,2.7,1,5.3,2.9,7.2c1.9,2,4.6,3,7.3,2.9h101.9c2.7,0,5.3-1,7.2-2.9
		c2-1.8,3.1-4.5,2.9-7.2V30.6c0.1-2.7-1-5.3-2.9-7.2c-1.9-1.9-4.5-3-7.2-3.1H30.6c-2.8,0-5.4,1.1-7.3,3.1c-2,1.8-3,4.5-2.9,7.2
		L20.4,132.5z M38.6,81.5c0-2.7,1.1-5.3,3.1-7.2c4-3.9,10.4-3.9,14.3,0l14.5,14.3l36-35.9c3.8-4,10-4.1,14-0.4
		c0.1,0.1,0.3,0.3,0.4,0.4c1.9,1.9,3,4.5,3.1,7.2c0.1,2.7-1,5.3-3,7.2l-43.2,43.2c-3.7,4-9.9,4.2-13.9,0.4c-0.1-0.1-0.3-0.3-0.4-0.4
		L41.7,88.7C39.7,86.8,38.6,84.2,38.6,81.5L38.6,81.5z"/>
</g>
</svg>
